solid втулка-Ultimaker
facet normal 0.7933533402912359 -0.6087614290087199 -0.0
  outer loop
    vertex -17.65685424949238 -6.34314575050762 0.0
    vertex -18.928203230275507 -7.999999999999998 40.00000000000001
    vertex -18.928203230275507 -7.999999999999998 0.0
  endloop
endfacet
facet normal 0.7933533402912359 -0.6087614290087199 -0.0
  outer loop
    vertex -18.928203230275507 -7.999999999999998 40.00000000000001
    vertex -17.65685424949238 -6.34314575050762 0.0
    vertex -17.65685424949238 -6.34314575050762 40.00000000000001
  endloop
endfacet
facet normal 0.0 -1.0 0.0
  outer loop
    vertex -18.928203230275507 -7.999999999999998 40.00000000000001
    vertex -20.0 -7.999999999999998 0.0
    vertex -18.928203230275507 -7.999999999999998 0.0
  endloop
endfacet
facet normal 0.0 -1.0 0.0
  outer loop
    vertex -20.0 -7.999999999999998 0.0
    vertex -18.928203230275507 -7.999999999999998 40.00000000000001
    vertex -20.0 -7.999999999999998 40.00000000000001
  endloop
endfacet
facet normal -1.0 0.0 0.0
  outer loop
    vertex -20.0 -3.0 40.0
    vertex -20.0 -7.999999999999998 0.0
    vertex -20.0 -7.999999999999998 40.00000000000001
  endloop
endfacet
facet normal -1.0 0.0 0.0
  outer loop
    vertex -20.0 -7.999999999999998 0.0
    vertex -20.0 -3.0 40.0
    vertex -20.0 -3.0 0.0
  endloop
endfacet
facet normal -1.0 0.0 0.0
  outer loop
    vertex -6.343145750507623 -17.65685424949238 40.00000000000001
    vertex -6.343145750507623 -20.0 0.0
    vertex -6.343145750507623 -20.0 40.00000000000001
  endloop
endfacet
facet normal -1.0 0.0 0.0
  outer loop
    vertex -6.343145750507623 -20.0 0.0
    vertex -6.343145750507623 -17.65685424949238 40.00000000000001
    vertex -6.343145750507623 -17.65685424949238 0.0
  endloop
endfacet
facet normal -0.7933533402912353 0.6087614290087204 0.0
  outer loop
    vertex -5.071796769724496 -16.0 40.00000000000001
    vertex -6.343145750507623 -17.65685424949238 0.0
    vertex -6.343145750507623 -17.65685424949238 40.00000000000001
  endloop
endfacet
facet normal -0.7933533402912353 0.6087614290087204 0.0
  outer loop
    vertex -6.343145750507623 -17.65685424949238 0.0
    vertex -5.071796769724496 -16.0 40.00000000000001
    vertex -5.071796769724496 -16.0 0.0
  endloop
endfacet
facet normal -0.9238795325112865 0.3826834323650907 0.0
  outer loop
    vertex -4.272593389687458 -14.070552360820171 40.00000000000001
    vertex -5.071796769724496 -16.0 0.0
    vertex -5.071796769724496 -16.0 40.00000000000001
  endloop
endfacet
facet normal -0.9238795325112865 0.3826834323650907 0.0
  outer loop
    vertex -5.071796769724496 -16.0 0.0
    vertex -4.272593389687458 -14.070552360820171 40.00000000000001
    vertex -4.272593389687458 -14.070552360820171 0.0
  endloop
endfacet
facet normal -0.9914448613738103 0.1305261922200528 0.0
  outer loop
    vertex -4.000000000000001 -12.0 40.00000000000001
    vertex -4.272593389687458 -14.070552360820171 0.0
    vertex -4.272593389687458 -14.070552360820171 40.00000000000001
  endloop
endfacet
facet normal -0.9914448613738103 0.1305261922200528 0.0
  outer loop
    vertex -4.272593389687458 -14.070552360820171 0.0
    vertex -4.000000000000001 -12.0 40.00000000000001
    vertex -4.000000000000001 -12.0 0.0
  endloop
endfacet
facet normal -0.9914448613738105 -0.13052619222005182 0.0
  outer loop
    vertex -4.272593389687455 -9.929447639179836 40.00000000000001
    vertex -4.000000000000001 -12.0 0.0
    vertex -4.000000000000001 -12.0 40.00000000000001
  endloop
endfacet
facet normal -0.9914448613738105 -0.13052619222005182 0.0
  outer loop
    vertex -4.000000000000001 -12.0 0.0
    vertex -4.272593389687455 -9.929447639179836 40.00000000000001
    vertex -4.272593389687455 -9.929447639179836 0.0
  endloop
endfacet
facet normal -0.9238795325112867 -0.3826834323650902 0.0
  outer loop
    vertex -5.071796769724493 -8.000000000000002 40.00000000000001
    vertex -4.272593389687455 -9.929447639179836 0.0
    vertex -4.272593389687455 -9.929447639179836 40.00000000000001
  endloop
endfacet
facet normal -0.9238795325112867 -0.3826834323650902 0.0
  outer loop
    vertex -4.272593389687455 -9.929447639179836 0.0
    vertex -5.071796769724493 -8.000000000000002 40.00000000000001
    vertex -5.071796769724493 -8.000000000000002 0.0
  endloop
endfacet
facet normal -0.7933533402912358 -0.6087614290087199 0.0
  outer loop
    vertex -6.34314575050762 -6.34314575050762 40.00000000000001
    vertex -5.071796769724493 -8.000000000000002 0.0
    vertex -5.071796769724493 -8.000000000000002 40.00000000000001
  endloop
endfacet
facet normal -0.7933533402912358 -0.6087614290087199 0.0
  outer loop
    vertex -5.071796769724493 -8.000000000000002 0.0
    vertex -6.34314575050762 -6.34314575050762 40.00000000000001
    vertex -6.34314575050762 -6.34314575050762 0.0
  endloop
endfacet
facet normal -0.6087614290087204 -0.7933533402912353 0.0
  outer loop
    vertex -6.34314575050762 -6.34314575050762 40.00000000000001
    vertex -7.999999999999999 -5.071796769724493 0.0
    vertex -6.34314575050762 -6.34314575050762 0.0
  endloop
endfacet
facet normal -0.6087614290087204 -0.7933533402912353 0.0
  outer loop
    vertex -7.999999999999999 -5.071796769724493 0.0
    vertex -6.34314575050762 -6.34314575050762 40.00000000000001
    vertex -7.999999999999999 -5.071796769724493 40.00000000000001
  endloop
endfacet
facet normal -0.3826834323650902 -0.9238795325112867 0.0
  outer loop
    vertex -7.999999999999999 -5.071796769724493 40.00000000000001
    vertex -9.929447639179832 -4.272593389687455 0.0
    vertex -7.999999999999999 -5.071796769724493 0.0
  endloop
endfacet
facet normal -0.3826834323650902 -0.9238795325112867 0.0
  outer loop
    vertex -9.929447639179832 -4.272593389687455 0.0
    vertex -7.999999999999999 -5.071796769724493 40.00000000000001
    vertex -9.929447639179832 -4.272593389687455 40.00000000000001
  endloop
endfacet
facet normal -0.13052619222005166 -0.9914448613738105 0.0
  outer loop
    vertex -9.929447639179832 -4.272593389687455 40.00000000000001
    vertex -12.0 -4.000000000000001 0.0
    vertex -9.929447639179832 -4.272593389687455 0.0
  endloop
endfacet
facet normal -0.13052619222005166 -0.9914448613738105 0.0
  outer loop
    vertex -12.0 -4.000000000000001 0.0
    vertex -9.929447639179832 -4.272593389687455 40.00000000000001
    vertex -12.0 -4.000000000000001 40.00000000000001
  endloop
endfacet
facet normal 0.13052619222005182 -0.9914448613738105 0.0
  outer loop
    vertex -12.0 -4.000000000000001 40.00000000000001
    vertex -14.070552360820166 -4.272593389687455 0.0
    vertex -12.0 -4.000000000000001 0.0
  endloop
endfacet
facet normal 0.13052619222005182 -0.9914448613738105 0.0
  outer loop
    vertex -14.070552360820166 -4.272593389687455 0.0
    vertex -12.0 -4.000000000000001 40.00000000000001
    vertex -14.070552360820166 -4.272593389687455 40.00000000000001
  endloop
endfacet
facet normal 0.38268343236508945 -0.9238795325112868 0.0
  outer loop
    vertex -14.070552360820166 -4.272593389687455 40.00000000000001
    vertex -15.999999999999996 -5.07179676972449 0.0
    vertex -14.070552360820166 -4.272593389687455 0.0
  endloop
endfacet
facet normal 0.38268343236508945 -0.9238795325112868 0.0
  outer loop
    vertex -15.999999999999996 -5.07179676972449 0.0
    vertex -14.070552360820166 -4.272593389687455 40.00000000000001
    vertex -15.999999999999996 -5.07179676972449 40.00000000000001
  endloop
endfacet
facet normal 0.60876142900872 -0.7933533402912357 0.0
  outer loop
    vertex -15.999999999999996 -5.07179676972449 40.00000000000001
    vertex -17.65685424949238 -6.34314575050762 0.0
    vertex -15.999999999999996 -5.07179676972449 0.0
  endloop
endfacet
facet normal 0.60876142900872 -0.7933533402912357 0.0
  outer loop
    vertex -17.65685424949238 -6.34314575050762 0.0
    vertex -15.999999999999996 -5.07179676972449 40.00000000000001
    vertex -17.65685424949238 -6.34314575050762 40.00000000000001
  endloop
endfacet
facet normal 0.9999986347002963 0.0007389989910435363 -0.0014779979820870872
  outer loop
    vertex 0.0 -3.0 0.0
    vertex 0.025126000000000735 -17.0 10.0
    vertex 0.0 -17.0 0.0
  endloop
endfacet
facet normal 0.9999986347002963 0.0007389989910435363 -0.0014779979820870872
  outer loop
    vertex 0.025126000000000735 -17.0 10.0
    vertex 0.0 -3.0 0.0
    vertex 0.0044340000000002485 -3.0 10.0
  endloop
endfacet
facet normal -0.0 -0.0 1.0
  outer loop
    vertex 10.0 -17.0 30.000000000000007
    vertex 0.0 -3.0 30.000000000000007
    vertex -7.049916206369744e-16 -17.0 30.000000000000007
  endloop
endfacet
facet normal -0.0 -0.0 1.0
  outer loop
    vertex 0.0 -3.0 30.000000000000007
    vertex 10.0 -17.0 30.000000000000007
    vertex 10.0 -3.0 30.000000000000007
  endloop
endfacet
facet normal 0.0 0.0 -1.0
  outer loop
    vertex 10.0 -3.0 10.0
    vertex 0.025126000000000735 -17.0 10.0
    vertex 0.0044340000000002485 -3.0 10.0
  endloop
endfacet
facet normal 0.0 0.0 -1.0
  outer loop
    vertex 0.025126000000000735 -17.0 10.0
    vertex 10.0 -3.0 10.0
    vertex 10.0 -17.0 10.0
  endloop
endfacet
facet normal 1.0 -0.0 -0.0
  outer loop
    vertex 10.0 -17.0 10.0
    vertex 10.0 -20.0 27.000000000000007
    vertex 10.0 -20.0 12.999999999999998
  endloop
endfacet
facet normal 1.0 -0.0 -0.0
  outer loop
    vertex 10.0 -20.0 27.000000000000007
    vertex 10.0 -17.0 10.0
    vertex 10.0 -17.999999999999996 20.000000000000004
  endloop
endfacet
facet normal 1.0 -0.0 -0.0
  outer loop
    vertex 10.0 -17.999999999999996 20.000000000000004
    vertex 10.0 -17.0 10.0
    vertex 10.0 -17.727406610312546 17.929447639179834
  endloop
endfacet
facet normal 1.0 -0.0 -0.0
  outer loop
    vertex 10.0 -17.727406610312546 17.929447639179834
    vertex 10.0 -17.0 10.0
    vertex 10.0 -16.928203230275507 15.999999999999998
  endloop
endfacet
facet normal 1.0 -0.0 -0.0
  outer loop
    vertex 10.0 -16.928203230275507 15.999999999999998
    vertex 10.0 -17.0 10.0
    vertex 10.0 -15.656854249492378 14.343145750507622
  endloop
endfacet
facet normal 1.0 -0.0 -0.0
  outer loop
    vertex 10.0 -15.656854249492378 14.343145750507622
    vertex 10.0 -17.0 10.0
    vertex 10.0 -13.999999999999996 13.071796769724495
  endloop
endfacet
facet normal 1.0 -0.0 -0.0
  outer loop
    vertex 10.0 -13.999999999999996 13.071796769724495
    vertex 10.0 -17.0 10.0
    vertex 10.0 -12.070552360820164 12.272593389687458
  endloop
endfacet
facet normal 1.0 -0.0 -0.0
  outer loop
    vertex 10.0 -12.070552360820164 12.272593389687458
    vertex 10.0 -17.0 10.0
    vertex 10.0 -3.0 10.0
  endloop
endfacet
facet normal 1.0 -0.0 -0.0
  outer loop
    vertex 10.0 -12.070552360820164 12.272593389687458
    vertex 10.0 -3.0 10.0
    vertex 10.0 -10.0 12.000000000000004
  endloop
endfacet
facet normal 1.0 -0.0 -0.0
  outer loop
    vertex 10.0 -10.0 12.000000000000004
    vertex 10.0 -3.0 10.0
    vertex 10.0 -7.929447639179833 12.272593389687458
  endloop
endfacet
facet normal 1.0 -0.0 -0.0
  outer loop
    vertex 10.0 -7.929447639179833 12.272593389687458
    vertex 10.0 -3.0 10.0
    vertex 10.0 -6.0 13.071796769724495
  endloop
endfacet
facet normal 1.0 -0.0 -0.0
  outer loop
    vertex 10.0 -6.0 13.071796769724495
    vertex 10.0 -3.0 10.0
    vertex 10.0 -4.34314575050762 14.343145750507622
  endloop
endfacet
facet normal 1.0 -0.0 -0.0
  outer loop
    vertex 10.0 -4.34314575050762 14.343145750507622
    vertex 10.0 -3.0 10.0
    vertex 10.0 -3.071796769724492 16.000000000000004
  endloop
endfacet
facet normal 1.0 -0.0 -0.0
  outer loop
    vertex 10.0 -3.071796769724492 16.000000000000004
    vertex 10.0 -3.0 10.0
    vertex 10.0 -2.272593389687456 17.929447639179838
  endloop
endfacet
facet normal 1.0 -0.0 -0.0
  outer loop
    vertex 10.0 -2.272593389687456 17.929447639179838
    vertex 10.0 -3.0 10.0
    vertex 10.0 0.0 12.999999999999998
  endloop
endfacet
facet normal 1.0 -0.0 -0.0
  outer loop
    vertex 10.0 -2.272593389687456 17.929447639179838
    vertex 10.0 0.0 12.999999999999998
    vertex 10.0 -2.0000000000000018 20.000000000000004
  endloop
endfacet
facet normal 1.0 -0.0 -0.0
  outer loop
    vertex 10.0 -17.999999999999996 20.000000000000004
    vertex 10.0 -17.0 30.000000000000007
    vertex 10.0 -20.0 27.000000000000007
  endloop
endfacet
facet normal 1.0 -0.0 -0.0
  outer loop
    vertex 10.0 -17.0 30.000000000000007
    vertex 10.0 -17.999999999999996 20.000000000000004
    vertex 10.0 -17.727406610312546 22.070552360820166
  endloop
endfacet
facet normal 1.0 -0.0 -0.0
  outer loop
    vertex 10.0 -17.0 30.000000000000007
    vertex 10.0 -17.727406610312546 22.070552360820166
    vertex 10.0 -16.92820323027551 24.0
  endloop
endfacet
facet normal 1.0 -0.0 -0.0
  outer loop
    vertex 10.0 -17.0 30.000000000000007
    vertex 10.0 -16.92820323027551 24.0
    vertex 10.0 -15.656854249492381 25.65685424949238
  endloop
endfacet
facet normal 1.0 -0.0 -0.0
  outer loop
    vertex 10.0 -17.0 30.000000000000007
    vertex 10.0 -15.656854249492381 25.65685424949238
    vertex 10.0 -14.000000000000002 26.92820323027551
  endloop
endfacet
facet normal 1.0 -0.0 -0.0
  outer loop
    vertex 10.0 -17.0 30.000000000000007
    vertex 10.0 -14.000000000000002 26.92820323027551
    vertex 10.0 -12.070552360820173 27.727406610312546
  endloop
endfacet
facet normal 1.0 -0.0 -0.0
  outer loop
    vertex 10.0 -17.0 30.000000000000007
    vertex 10.0 -12.070552360820173 27.727406610312546
    vertex 10.0 -3.0 30.000000000000007
  endloop
endfacet
facet normal 1.0 -0.0 -0.0
  outer loop
    vertex 10.0 -3.0 30.000000000000007
    vertex 10.0 -12.070552360820173 27.727406610312546
    vertex 10.0 -10.000000000000002 28.000000000000004
  endloop
endfacet
facet normal 1.0 -0.0 -0.0
  outer loop
    vertex 10.0 -3.0 30.000000000000007
    vertex 10.0 -10.000000000000002 28.000000000000004
    vertex 10.0 -7.929447639179839 27.727406610312553
  endloop
endfacet
facet normal 1.0 -0.0 -0.0
  outer loop
    vertex 10.0 -3.0 30.000000000000007
    vertex 10.0 -7.929447639179839 27.727406610312553
    vertex 10.0 -6.000000000000006 26.928203230275518
  endloop
endfacet
facet normal 1.0 -0.0 -0.0
  outer loop
    vertex 10.0 -3.0 30.000000000000007
    vertex 10.0 -6.000000000000006 26.928203230275518
    vertex 10.0 -4.343145750507623 25.656854249492387
  endloop
endfacet
facet normal 1.0 -0.0 -0.0
  outer loop
    vertex 10.0 -3.0 30.000000000000007
    vertex 10.0 -4.343145750507623 25.656854249492387
    vertex 10.0 -3.0717967697244952 24.000000000000007
  endloop
endfacet
facet normal 1.0 -0.0 -0.0
  outer loop
    vertex 10.0 -3.0 30.000000000000007
    vertex 10.0 -3.0717967697244952 24.000000000000007
    vertex 10.0 -2.2725933896874575 22.070552360820173
  endloop
endfacet
facet normal 1.0 -0.0 -0.0
  outer loop
    vertex 10.0 -3.0 30.000000000000007
    vertex 10.0 -2.2725933896874575 22.070552360820173
    vertex 10.0 0.0 27.000000000000007
  endloop
endfacet
facet normal 1.0 -0.0 -0.0
  outer loop
    vertex 10.0 0.0 27.000000000000007
    vertex 10.0 -2.2725933896874575 22.070552360820173
    vertex 10.0 -2.0000000000000018 20.000000000000004
  endloop
endfacet
facet normal 1.0 -0.0 -0.0
  outer loop
    vertex 10.0 0.0 27.000000000000007
    vertex 10.0 -2.0000000000000018 20.000000000000004
    vertex 10.0 0.0 12.999999999999998
  endloop
endfacet
facet normal 1.0 0.0 0.0
  outer loop
    vertex -2.0000000000000004 -17.727406610312546 17.929447639179834
    vertex -2.0000000000000004 -17.727406610312546 22.070552360820166
    vertex -2.0000000000000004 -17.999999999999996 20.000000000000004
  endloop
endfacet
facet normal 1.0 0.0 0.0
  outer loop
    vertex -2.0000000000000004 -17.727406610312546 22.070552360820166
    vertex -2.0000000000000004 -17.727406610312546 17.929447639179834
    vertex -2.0000000000000004 -16.92820323027551 24.0
  endloop
endfacet
facet normal 1.0 0.0 0.0
  outer loop
    vertex -2.0000000000000004 -16.92820323027551 24.0
    vertex -2.0000000000000004 -17.727406610312546 17.929447639179834
    vertex -2.0000000000000004 -16.928203230275507 15.999999999999998
  endloop
endfacet
facet normal 1.0 0.0 0.0
  outer loop
    vertex -2.0000000000000004 -16.92820323027551 24.0
    vertex -2.0000000000000004 -16.928203230275507 15.999999999999998
    vertex -2.0000000000000004 -15.656854249492381 25.65685424949238
  endloop
endfacet
facet normal 1.0 0.0 0.0
  outer loop
    vertex -2.0000000000000004 -15.656854249492381 25.65685424949238
    vertex -2.0000000000000004 -16.928203230275507 15.999999999999998
    vertex -2.0000000000000004 -15.656854249492378 14.343145750507622
  endloop
endfacet
facet normal 1.0 0.0 0.0
  outer loop
    vertex -2.0000000000000004 -15.656854249492381 25.65685424949238
    vertex -2.0000000000000004 -15.656854249492378 14.343145750507622
    vertex -2.0000000000000004 -14.000000000000002 26.92820323027551
  endloop
endfacet
facet normal 1.0 0.0 0.0
  outer loop
    vertex -2.0000000000000004 -14.000000000000002 26.92820323027551
    vertex -2.0000000000000004 -15.656854249492378 14.343145750507622
    vertex -2.0000000000000004 -13.999999999999996 13.071796769724495
  endloop
endfacet
facet normal 1.0 0.0 0.0
  outer loop
    vertex -2.0000000000000004 -14.000000000000002 26.92820323027551
    vertex -2.0000000000000004 -13.999999999999996 13.071796769724495
    vertex -2.0000000000000004 -12.070552360820173 27.727406610312546
  endloop
endfacet
facet normal 1.0 0.0 0.0
  outer loop
    vertex -2.0000000000000004 -12.070552360820173 27.727406610312546
    vertex -2.0000000000000004 -13.999999999999996 13.071796769724495
    vertex -2.0000000000000004 -12.070552360820164 12.272593389687458
  endloop
endfacet
facet normal 1.0 0.0 0.0
  outer loop
    vertex -2.0000000000000004 -12.070552360820173 27.727406610312546
    vertex -2.0000000000000004 -12.070552360820164 12.272593389687458
    vertex -2.0000000000000004 -10.000000000000002 28.000000000000004
  endloop
endfacet
facet normal 1.0 0.0 0.0
  outer loop
    vertex -2.0000000000000004 -10.000000000000002 28.000000000000004
    vertex -2.0000000000000004 -12.070552360820164 12.272593389687458
    vertex -2.0000000000000004 -10.0 12.000000000000004
  endloop
endfacet
facet normal 1.0 0.0 0.0
  outer loop
    vertex -2.0000000000000004 -10.000000000000002 28.000000000000004
    vertex -2.0000000000000004 -10.0 12.000000000000004
    vertex -2.0000000000000004 -7.929447639179839 27.727406610312553
  endloop
endfacet
facet normal 1.0 0.0 0.0
  outer loop
    vertex -2.0000000000000004 -7.929447639179839 27.727406610312553
    vertex -2.0000000000000004 -10.0 12.000000000000004
    vertex -2.0000000000000004 -7.929447639179833 12.272593389687458
  endloop
endfacet
facet normal 1.0 0.0 0.0
  outer loop
    vertex -2.0000000000000004 -7.929447639179839 27.727406610312553
    vertex -2.0000000000000004 -7.929447639179833 12.272593389687458
    vertex -2.0000000000000004 -6.000000000000006 26.928203230275518
  endloop
endfacet
facet normal 1.0 0.0 0.0
  outer loop
    vertex -2.0000000000000004 -6.000000000000006 26.928203230275518
    vertex -2.0000000000000004 -7.929447639179833 12.272593389687458
    vertex -2.0000000000000004 -6.0 13.071796769724495
  endloop
endfacet
facet normal 1.0 0.0 0.0
  outer loop
    vertex -2.0000000000000004 -6.000000000000006 26.928203230275518
    vertex -2.0000000000000004 -6.0 13.071796769724495
    vertex -2.0000000000000004 -4.343145750507623 25.656854249492387
  endloop
endfacet
facet normal 1.0 0.0 0.0
  outer loop
    vertex -2.0000000000000004 -4.343145750507623 25.656854249492387
    vertex -2.0000000000000004 -6.0 13.071796769724495
    vertex -2.0000000000000004 -4.34314575050762 14.343145750507622
  endloop
endfacet
facet normal 1.0 0.0 0.0
  outer loop
    vertex -2.0000000000000004 -4.343145750507623 25.656854249492387
    vertex -2.0000000000000004 -4.34314575050762 14.343145750507622
    vertex -2.0000000000000004 -3.0717967697244952 24.000000000000007
  endloop
endfacet
facet normal 1.0 0.0 0.0
  outer loop
    vertex -2.0000000000000004 -3.0717967697244952 24.000000000000007
    vertex -2.0000000000000004 -4.34314575050762 14.343145750507622
    vertex -2.0000000000000004 -3.071796769724492 16.000000000000004
  endloop
endfacet
facet normal 1.0 0.0 0.0
  outer loop
    vertex -2.0000000000000004 -3.0717967697244952 24.000000000000007
    vertex -2.0000000000000004 -3.071796769724492 16.000000000000004
    vertex -2.0000000000000004 -2.2725933896874575 22.070552360820173
  endloop
endfacet
facet normal 1.0 0.0 0.0
  outer loop
    vertex -2.0000000000000004 -2.2725933896874575 22.070552360820173
    vertex -2.0000000000000004 -3.071796769724492 16.000000000000004
    vertex -2.0000000000000004 -2.272593389687456 17.929447639179838
  endloop
endfacet
facet normal 1.0 0.0 0.0
  outer loop
    vertex -2.0000000000000004 -2.2725933896874575 22.070552360820173
    vertex -2.0000000000000004 -2.272593389687456 17.929447639179838
    vertex -2.0000000000000004 -2.0000000000000018 20.000000000000004
  endloop
endfacet
facet normal -0.0 -0.3826834323650891 -0.9238795325112871
  outer loop
    vertex 10.0 -6.000000000000006 26.928203230275518
    vertex -2.0000000000000004 -7.929447639179839 27.727406610312553
    vertex -2.0000000000000004 -6.000000000000006 26.928203230275518
  endloop
endfacet
facet normal -0.0 -0.3826834323650891 -0.9238795325112871
  outer loop
    vertex -2.0000000000000004 -7.929447639179839 27.727406610312553
    vertex 10.0 -6.000000000000006 26.928203230275518
    vertex 10.0 -7.929447639179839 27.727406610312553
  endloop
endfacet
facet normal -0.0 -0.130526192220052 -0.9914448613738105
  outer loop
    vertex 10.0 -7.929447639179839 27.727406610312553
    vertex -2.0000000000000004 -10.000000000000002 28.000000000000004
    vertex -2.0000000000000004 -7.929447639179839 27.727406610312553
  endloop
endfacet
facet normal -0.0 -0.130526192220052 -0.9914448613738105
  outer loop
    vertex -2.0000000000000004 -10.000000000000002 28.000000000000004
    vertex 10.0 -7.929447639179839 27.727406610312553
    vertex 10.0 -10.000000000000002 28.000000000000004
  endloop
endfacet
facet normal -0.0 0.1305261922200541 -0.99144486137381
  outer loop
    vertex 10.0 -10.000000000000002 28.000000000000004
    vertex -2.0000000000000004 -12.070552360820173 27.727406610312546
    vertex -2.0000000000000004 -10.000000000000002 28.000000000000004
  endloop
endfacet
facet normal -0.0 0.1305261922200541 -0.99144486137381
  outer loop
    vertex -2.0000000000000004 -12.070552360820173 27.727406610312546
    vertex 10.0 -10.000000000000002 28.000000000000004
    vertex 10.0 -12.070552360820173 27.727406610312546
  endloop
endfacet
facet normal -0.0 0.3826834323650895 -0.923879532511287
  outer loop
    vertex 10.0 -12.070552360820173 27.727406610312546
    vertex -2.0000000000000004 -14.000000000000002 26.92820323027551
    vertex -2.0000000000000004 -12.070552360820173 27.727406610312546
  endloop
endfacet
facet normal -0.0 0.3826834323650895 -0.923879532511287
  outer loop
    vertex -2.0000000000000004 -14.000000000000002 26.92820323027551
    vertex 10.0 -12.070552360820173 27.727406610312546
    vertex 10.0 -14.000000000000002 26.92820323027551
  endloop
endfacet
facet normal -0.0 0.6087614290087213 -0.7933533402912347
  outer loop
    vertex 10.0 -14.000000000000002 26.92820323027551
    vertex -2.0000000000000004 -15.656854249492381 25.65685424949238
    vertex -2.0000000000000004 -14.000000000000002 26.92820323027551
  endloop
endfacet
facet normal -0.0 0.6087614290087213 -0.7933533402912347
  outer loop
    vertex -2.0000000000000004 -15.656854249492381 25.65685424949238
    vertex 10.0 -14.000000000000002 26.92820323027551
    vertex 10.0 -15.656854249492381 25.65685424949238
  endloop
endfacet
facet normal -0.0 0.7933533402912354 -0.6087614290087205
  outer loop
    vertex -2.0000000000000004 -15.656854249492381 25.65685424949238
    vertex 10.0 -16.92820323027551 24.0
    vertex -2.0000000000000004 -16.92820323027551 24.0
  endloop
endfacet
facet normal -0.0 0.7933533402912354 -0.6087614290087205
  outer loop
    vertex 10.0 -16.92820323027551 24.0
    vertex -2.0000000000000004 -15.656854249492381 25.65685424949238
    vertex 10.0 -15.656854249492381 25.65685424949238
  endloop
endfacet
facet normal -0.0 0.9238795325112868 -0.38268343236508967
  outer loop
    vertex -2.0000000000000004 -16.92820323027551 24.0
    vertex 10.0 -17.727406610312546 22.070552360820166
    vertex -2.0000000000000004 -17.727406610312546 22.070552360820166
  endloop
endfacet
facet normal -0.0 0.9238795325112868 -0.38268343236508967
  outer loop
    vertex 10.0 -17.727406610312546 22.070552360820166
    vertex -2.0000000000000004 -16.92820323027551 24.0
    vertex 10.0 -16.92820323027551 24.0
  endloop
endfacet
facet normal -0.0 0.9914448613738107 -0.13052619222005066
  outer loop
    vertex -2.0000000000000004 -17.727406610312546 22.070552360820166
    vertex 10.0 -17.999999999999996 20.000000000000004
    vertex -2.0000000000000004 -17.999999999999996 20.000000000000004
  endloop
endfacet
facet normal -0.0 0.9914448613738107 -0.13052619222005066
  outer loop
    vertex 10.0 -17.999999999999996 20.000000000000004
    vertex -2.0000000000000004 -17.727406610312546 22.070552360820166
    vertex 10.0 -17.727406610312546 22.070552360820166
  endloop
endfacet
facet normal 0.0 0.9914448613738104 0.13052619222005163
  outer loop
    vertex -2.0000000000000004 -17.999999999999996 20.000000000000004
    vertex 10.0 -17.727406610312546 17.929447639179834
    vertex -2.0000000000000004 -17.727406610312546 17.929447639179834
  endloop
endfacet
facet normal 0.0 0.9914448613738104 0.13052619222005163
  outer loop
    vertex 10.0 -17.727406610312546 17.929447639179834
    vertex -2.0000000000000004 -17.999999999999996 20.000000000000004
    vertex 10.0 -17.999999999999996 20.000000000000004
  endloop
endfacet
facet normal 0.0 0.9238795325112868 0.38268343236508967
  outer loop
    vertex -2.0000000000000004 -17.727406610312546 17.929447639179834
    vertex 10.0 -16.928203230275507 15.999999999999998
    vertex -2.0000000000000004 -16.928203230275507 15.999999999999998
  endloop
endfacet
facet normal 0.0 0.9238795325112868 0.38268343236508967
  outer loop
    vertex 10.0 -16.928203230275507 15.999999999999998
    vertex -2.0000000000000004 -17.727406610312546 17.929447639179834
    vertex 10.0 -17.727406610312546 17.929447639179834
  endloop
endfacet
facet normal 0.0 0.7933533402912349 0.6087614290087212
  outer loop
    vertex -2.0000000000000004 -16.928203230275507 15.999999999999998
    vertex 10.0 -15.656854249492378 14.343145750507622
    vertex -2.0000000000000004 -15.656854249492378 14.343145750507622
  endloop
endfacet
facet normal 0.0 0.7933533402912349 0.6087614290087212
  outer loop
    vertex 10.0 -15.656854249492378 14.343145750507622
    vertex -2.0000000000000004 -16.928203230275507 15.999999999999998
    vertex 10.0 -16.928203230275507 15.999999999999998
  endloop
endfacet
facet normal 0.0 0.6087614290087199 0.7933533402912359
  outer loop
    vertex 10.0 -15.656854249492378 14.343145750507622
    vertex -2.0000000000000004 -13.999999999999996 13.071796769724495
    vertex -2.0000000000000004 -15.656854249492378 14.343145750507622
  endloop
endfacet
facet normal 0.0 0.6087614290087199 0.7933533402912359
  outer loop
    vertex -2.0000000000000004 -13.999999999999996 13.071796769724495
    vertex 10.0 -15.656854249492378 14.343145750507622
    vertex 10.0 -13.999999999999996 13.071796769724495
  endloop
endfacet
facet normal 0.0 0.3826834323650902 0.9238795325112867
  outer loop
    vertex 10.0 -13.999999999999996 13.071796769724495
    vertex -2.0000000000000004 -12.070552360820164 12.272593389687458
    vertex -2.0000000000000004 -13.999999999999996 13.071796769724495
  endloop
endfacet
facet normal 0.0 0.3826834323650902 0.9238795325112867
  outer loop
    vertex -2.0000000000000004 -12.070552360820164 12.272593389687458
    vertex 10.0 -13.999999999999996 13.071796769724495
    vertex 10.0 -12.070552360820164 12.272593389687458
  endloop
endfacet
facet normal 0.0 0.13052619222005188 0.9914448613738104
  outer loop
    vertex 10.0 -12.070552360820164 12.272593389687458
    vertex -2.0000000000000004 -10.0 12.000000000000004
    vertex -2.0000000000000004 -12.070552360820164 12.272593389687458
  endloop
endfacet
facet normal 0.0 0.13052619222005188 0.9914448613738104
  outer loop
    vertex -2.0000000000000004 -10.0 12.000000000000004
    vertex 10.0 -12.070552360820164 12.272593389687458
    vertex 10.0 -10.0 12.000000000000004
  endloop
endfacet
facet normal -0.0 -0.1305261922200517 0.9914448613738105
  outer loop
    vertex 10.0 -10.0 12.000000000000004
    vertex -2.0000000000000004 -7.929447639179833 12.272593389687458
    vertex -2.0000000000000004 -10.0 12.000000000000004
  endloop
endfacet
facet normal -0.0 -0.1305261922200517 0.9914448613738105
  outer loop
    vertex -2.0000000000000004 -7.929447639179833 12.272593389687458
    vertex 10.0 -10.0 12.000000000000004
    vertex 10.0 -7.929447639179833 12.272593389687458
  endloop
endfacet
facet normal -0.0 -0.3826834323650902 0.9238795325112867
  outer loop
    vertex 10.0 -7.929447639179833 12.272593389687458
    vertex -2.0000000000000004 -6.0 13.071796769724495
    vertex -2.0000000000000004 -7.929447639179833 12.272593389687458
  endloop
endfacet
facet normal -0.0 -0.3826834323650902 0.9238795325112867
  outer loop
    vertex -2.0000000000000004 -6.0 13.071796769724495
    vertex 10.0 -7.929447639179833 12.272593389687458
    vertex 10.0 -6.0 13.071796769724495
  endloop
endfacet
facet normal -0.0 -0.6087614290087203 0.7933533402912356
  outer loop
    vertex 10.0 -6.0 13.071796769724495
    vertex -2.0000000000000004 -4.34314575050762 14.343145750507622
    vertex -2.0000000000000004 -6.0 13.071796769724495
  endloop
endfacet
facet normal -0.0 -0.6087614290087203 0.7933533402912356
  outer loop
    vertex -2.0000000000000004 -4.34314575050762 14.343145750507622
    vertex 10.0 -6.0 13.071796769724495
    vertex 10.0 -4.34314575050762 14.343145750507622
  endloop
endfacet
facet normal -0.0 -0.7933533402912358 0.6087614290087201
  outer loop
    vertex 10.0 -3.071796769724492 16.000000000000004
    vertex -2.0000000000000004 -4.34314575050762 14.343145750507622
    vertex 10.0 -4.34314575050762 14.343145750507622
  endloop
endfacet
facet normal -0.0 -0.7933533402912358 0.6087614290087201
  outer loop
    vertex -2.0000000000000004 -4.34314575050762 14.343145750507622
    vertex 10.0 -3.071796769724492 16.000000000000004
    vertex -2.0000000000000004 -3.071796769724492 16.000000000000004
  endloop
endfacet
facet normal -0.0 -0.9238795325112868 0.38268343236508956
  outer loop
    vertex 10.0 -2.272593389687456 17.929447639179838
    vertex -2.0000000000000004 -3.071796769724492 16.000000000000004
    vertex 10.0 -3.071796769724492 16.000000000000004
  endloop
endfacet
facet normal -0.0 -0.9238795325112868 0.38268343236508956
  outer loop
    vertex -2.0000000000000004 -3.071796769724492 16.000000000000004
    vertex 10.0 -2.272593389687456 17.929447639179838
    vertex -2.0000000000000004 -2.272593389687456 17.929447639179838
  endloop
endfacet
facet normal -0.0 -0.9914448613738104 0.1305261922200518
  outer loop
    vertex 10.0 -2.0000000000000018 20.000000000000004
    vertex -2.0000000000000004 -2.272593389687456 17.929447639179838
    vertex 10.0 -2.272593389687456 17.929447639179838
  endloop
endfacet
facet normal -0.0 -0.9914448613738104 0.1305261922200518
  outer loop
    vertex -2.0000000000000004 -2.272593389687456 17.929447639179838
    vertex 10.0 -2.0000000000000018 20.000000000000004
    vertex -2.0000000000000004 -2.0000000000000018 20.000000000000004
  endloop
endfacet
facet normal -0.0 -0.9914448613738105 -0.13052619222005213
  outer loop
    vertex 10.0 -2.2725933896874575 22.070552360820173
    vertex -2.0000000000000004 -2.0000000000000018 20.000000000000004
    vertex 10.0 -2.0000000000000018 20.000000000000004
  endloop
endfacet
facet normal -0.0 -0.9914448613738105 -0.13052619222005213
  outer loop
    vertex -2.0000000000000004 -2.0000000000000018 20.000000000000004
    vertex 10.0 -2.2725933896874575 22.070552360820173
    vertex -2.0000000000000004 -2.2725933896874575 22.070552360820173
  endloop
endfacet
facet normal -0.0 -0.9238795325112867 -0.3826834323650902
  outer loop
    vertex 10.0 -3.0717967697244952 24.000000000000007
    vertex -2.0000000000000004 -2.2725933896874575 22.070552360820173
    vertex 10.0 -2.2725933896874575 22.070552360820173
  endloop
endfacet
facet normal -0.0 -0.9238795325112867 -0.3826834323650902
  outer loop
    vertex -2.0000000000000004 -2.2725933896874575 22.070552360820173
    vertex 10.0 -3.0717967697244952 24.000000000000007
    vertex -2.0000000000000004 -3.0717967697244952 24.000000000000007
  endloop
endfacet
facet normal -0.0 -0.7933533402912354 -0.6087614290087205
  outer loop
    vertex 10.0 -4.343145750507623 25.656854249492387
    vertex -2.0000000000000004 -3.0717967697244952 24.000000000000007
    vertex 10.0 -3.0717967697244952 24.000000000000007
  endloop
endfacet
facet normal -0.0 -0.7933533402912354 -0.6087614290087205
  outer loop
    vertex -2.0000000000000004 -3.0717967697244952 24.000000000000007
    vertex 10.0 -4.343145750507623 25.656854249492387
    vertex -2.0000000000000004 -4.343145750507623 25.656854249492387
  endloop
endfacet
facet normal -0.0 -0.6087614290087202 -0.7933533402912355
  outer loop
    vertex 10.0 -4.343145750507623 25.656854249492387
    vertex -2.0000000000000004 -6.000000000000006 26.928203230275518
    vertex -2.0000000000000004 -4.343145750507623 25.656854249492387
  endloop
endfacet
facet normal -0.0 -0.6087614290087202 -0.7933533402912355
  outer loop
    vertex -2.0000000000000004 -6.000000000000006 26.928203230275518
    vertex 10.0 -4.343145750507623 25.656854249492387
    vertex 10.0 -6.000000000000006 26.928203230275518
  endloop
endfacet
facet normal -0.0 0.7071067811865476 0.7071067811865476
  outer loop
    vertex 0.0 -3.0 30.000000000000007
    vertex 10.0 0.0 27.000000000000007
    vertex 0.0 0.0 27.000000000000007
  endloop
endfacet
facet normal -0.0 0.7071067811865476 0.7071067811865476
  outer loop
    vertex 10.0 0.0 27.000000000000007
    vertex 0.0 -3.0 30.000000000000007
    vertex 10.0 -3.0 30.000000000000007
  endloop
endfacet
facet normal -2.8115311485733104e-32 -0.7071067811865476 0.7071067811865476
  outer loop
    vertex 10.0 -17.0 30.000000000000007
    vertex -7.049916206369744e-16 -20.0 27.000000000000007
    vertex 10.0 -20.0 27.000000000000007
  endloop
endfacet
facet normal -2.8115311485733104e-32 -0.7071067811865476 0.7071067811865476
  outer loop
    vertex -7.049916206369744e-16 -20.0 27.000000000000007
    vertex 10.0 -17.0 30.000000000000007
    vertex -7.049916206369744e-16 -17.0 30.000000000000007
  endloop
endfacet
facet normal 0.0 -0.7071067811865475 -0.7071067811865476
  outer loop
    vertex 10.0 -17.0 10.0
    vertex 0.025126000000000735 -20.0 12.999999999999998
    vertex 0.025126000000000735 -17.0 10.0
  endloop
endfacet
facet normal 0.0 -0.7071067811865475 -0.7071067811865476
  outer loop
    vertex 0.025126000000000735 -20.0 12.999999999999998
    vertex 10.0 -17.0 10.0
    vertex 10.0 -20.0 12.999999999999998
  endloop
endfacet
facet normal 0.0 0.7071067811865475 -0.7071067811865476
  outer loop
    vertex 10.0 0.0 12.999999999999998
    vertex 0.0044340000000002485 -3.0 10.0
    vertex 0.0044340000000002485 0.0 12.999999999999998
  endloop
endfacet
facet normal 0.0 0.7071067811865475 -0.7071067811865476
  outer loop
    vertex 0.0044340000000002485 -3.0 10.0
    vertex 10.0 0.0 12.999999999999998
    vertex 10.0 -3.0 10.0
  endloop
endfacet
facet normal -0.7071067811865476 0.7071067811865476 -0.0
  outer loop
    vertex -17.0 0.0 40.0
    vertex -20.0 -3.0 0.0
    vertex -20.0 -3.0 40.0
  endloop
endfacet
facet normal -0.7071067811865476 0.7071067811865476 -0.0
  outer loop
    vertex -20.0 -3.0 0.0
    vertex -17.0 0.0 40.0
    vertex -17.0 0.0 0.0
  endloop
endfacet
facet normal 0.706845351971357 0.7073680964244938 -0.00015670761453206525
  outer loop
    vertex -3.0 0.0 10.0
    vertex 0.0 -3.0 0.0
    vertex -3.0 0.0 0.0
  endloop
endfacet
facet normal 0.706845351971357 0.7073680964244938 -0.00015670761453206525
  outer loop
    vertex 0.0 -3.0 0.0
    vertex -3.0 0.0 10.0
    vertex 0.0044340000000002485 -3.0 10.0
  endloop
endfacet
facet normal 1.0 -2.517827216560623e-17 -3.5249581031848727e-17
  outer loop
    vertex 0.0 -3.0 30.000000000000007
    vertex 0.0 -17.0 40.00000000000001
    vertex -7.049916206369744e-16 -17.0 30.000000000000007
  endloop
endfacet
facet normal 1.0 -2.517827216560623e-17 -3.5249581031848727e-17
  outer loop
    vertex 0.0 -17.0 40.00000000000001
    vertex 0.0 -3.0 30.000000000000007
    vertex 0.0 -3.0 40.00000000000001
  endloop
endfacet
facet normal 0.7071067811865476 0.7071067811865476 7.91375664565956e-18
  outer loop
    vertex 0.0 -3.0 30.000000000000007
    vertex -3.0 0.0 40.00000000000001
    vertex 0.0 -3.0 40.00000000000001
  endloop
endfacet
facet normal 0.7071067811865476 0.7071067811865476 7.91375664565956e-18
  outer loop
    vertex -3.0 0.0 40.00000000000001
    vertex 0.0 -3.0 30.000000000000007
    vertex -3.0 0.0 30.000000000000007
  endloop
endfacet
facet normal 0.5773502691896256 0.5773502691896257 0.5773502691896258
  outer loop
    vertex 0.0 0.0 27.000000000000007
    vertex -3.0 0.0 30.000000000000007
    vertex 0.0 -3.0 30.000000000000007
  endloop
endfacet
facet normal -0.0 1.0 -0.0
  outer loop
    vertex -17.0 0.0 40.0
    vertex -3.0 0.0 0.0
    vertex -17.0 0.0 0.0
  endloop
endfacet
facet normal -0.0 1.0 -0.0
  outer loop
    vertex -3.0 0.0 0.0
    vertex -17.0 0.0 40.0
    vertex -3.0 0.0 10.0
  endloop
endfacet
facet normal -0.0 1.0 -0.0
  outer loop
    vertex -3.0 0.0 10.0
    vertex -17.0 0.0 40.0
    vertex 0.0044340000000002485 0.0 12.999999999999998
  endloop
endfacet
facet normal -0.0 1.0 -0.0
  outer loop
    vertex 0.0044340000000002485 0.0 12.999999999999998
    vertex -17.0 0.0 40.0
    vertex 10.0 0.0 12.999999999999998
  endloop
endfacet
facet normal -0.0 1.0 -0.0
  outer loop
    vertex 10.0 0.0 12.999999999999998
    vertex -17.0 0.0 40.0
    vertex 0.0 0.0 27.000000000000007
  endloop
endfacet
facet normal -0.0 1.0 -0.0
  outer loop
    vertex 0.0 0.0 27.000000000000007
    vertex -17.0 0.0 40.0
    vertex -3.0 0.0 30.000000000000007
  endloop
endfacet
facet normal -0.0 1.0 -0.0
  outer loop
    vertex -3.0 0.0 30.000000000000007
    vertex -17.0 0.0 40.0
    vertex -3.0 0.0 40.00000000000001
  endloop
endfacet
facet normal -0.0 1.0 -0.0
  outer loop
    vertex 10.0 0.0 27.000000000000007
    vertex 10.0 0.0 12.999999999999998
    vertex 0.0 0.0 27.000000000000007
  endloop
endfacet
facet normal 0.576781806990226 0.5776342905009575 -0.5776342905009579
  outer loop
    vertex 0.0044340000000002485 -3.0 10.0
    vertex -3.0 0.0 10.0
    vertex 0.0044340000000002485 0.0 12.999999999999998
  endloop
endfacet
facet normal -9.058364759598165e-17 5.665399106329555e-17 1.0
  outer loop
    vertex -3.0 -20.0 40.00000000000001
    vertex -6.343145750507623 -17.65685424949238 40.00000000000001
    vertex -6.343145750507623 -20.0 40.00000000000001
  endloop
endfacet
facet normal -9.058364759598165e-17 5.665399106329555e-17 1.0
  outer loop
    vertex -6.343145750507623 -17.65685424949238 40.00000000000001
    vertex -3.0 -20.0 40.00000000000001
    vertex -5.071796769724496 -16.0 40.00000000000001
  endloop
endfacet
facet normal -9.058364759598165e-17 5.665399106329555e-17 1.0
  outer loop
    vertex -5.071796769724496 -16.0 40.00000000000001
    vertex -3.0 -20.0 40.00000000000001
    vertex -4.272593389687458 -14.070552360820171 40.00000000000001
  endloop
endfacet
facet normal -9.058364759598165e-17 5.665399106329555e-17 1.0
  outer loop
    vertex -4.272593389687458 -14.070552360820171 40.00000000000001
    vertex -3.0 -20.0 40.00000000000001
    vertex -4.000000000000001 -12.0 40.00000000000001
  endloop
endfacet
facet normal -9.058364759598165e-17 5.665399106329555e-17 1.0
  outer loop
    vertex -4.000000000000001 -12.0 40.00000000000001
    vertex -3.0 -20.0 40.00000000000001
    vertex -3.0 0.0 40.00000000000001
  endloop
endfacet
facet normal -9.058364759598165e-17 5.665399106329555e-17 1.0
  outer loop
    vertex -3.0 0.0 40.00000000000001
    vertex -3.0 -20.0 40.00000000000001
    vertex 0.0 -3.0 40.00000000000001
  endloop
endfacet
facet normal -9.058364759598165e-17 5.665399106329555e-17 1.0
  outer loop
    vertex 0.0 -3.0 40.00000000000001
    vertex -3.0 -20.0 40.00000000000001
    vertex 0.0 -17.0 40.00000000000001
  endloop
endfacet
facet normal -9.058364759598165e-17 5.665399106329555e-17 1.0
  outer loop
    vertex -18.928203230275507 -7.999999999999998 40.00000000000001
    vertex -20.0 -3.0 40.0
    vertex -20.0 -7.999999999999998 40.00000000000001
  endloop
endfacet
facet normal -9.058364759598165e-17 5.665399106329555e-17 1.0
  outer loop
    vertex -20.0 -3.0 40.0
    vertex -18.928203230275507 -7.999999999999998 40.00000000000001
    vertex -17.0 0.0 40.0
  endloop
endfacet
facet normal -9.058364759598165e-17 5.665399106329555e-17 1.0
  outer loop
    vertex -17.0 0.0 40.0
    vertex -18.928203230275507 -7.999999999999998 40.00000000000001
    vertex -17.65685424949238 -6.34314575050762 40.00000000000001
  endloop
endfacet
facet normal -9.058364759598165e-17 5.665399106329555e-17 1.0
  outer loop
    vertex -17.0 0.0 40.0
    vertex -17.65685424949238 -6.34314575050762 40.00000000000001
    vertex -15.999999999999996 -5.07179676972449 40.00000000000001
  endloop
endfacet
facet normal -9.058364759598165e-17 5.665399106329555e-17 1.0
  outer loop
    vertex -17.0 0.0 40.0
    vertex -15.999999999999996 -5.07179676972449 40.00000000000001
    vertex -14.070552360820166 -4.272593389687455 40.00000000000001
  endloop
endfacet
facet normal -9.058364759598165e-17 5.665399106329555e-17 1.0
  outer loop
    vertex -17.0 0.0 40.0
    vertex -14.070552360820166 -4.272593389687455 40.00000000000001
    vertex -3.0 0.0 40.00000000000001
  endloop
endfacet
facet normal -9.058364759598165e-17 5.665399106329555e-17 1.0
  outer loop
    vertex -3.0 0.0 40.00000000000001
    vertex -14.070552360820166 -4.272593389687455 40.00000000000001
    vertex -12.0 -4.000000000000001 40.00000000000001
  endloop
endfacet
facet normal -9.058364759598165e-17 5.665399106329555e-17 1.0
  outer loop
    vertex -3.0 0.0 40.00000000000001
    vertex -12.0 -4.000000000000001 40.00000000000001
    vertex -9.929447639179832 -4.272593389687455 40.00000000000001
  endloop
endfacet
facet normal -9.058364759598165e-17 5.665399106329555e-17 1.0
  outer loop
    vertex -3.0 0.0 40.00000000000001
    vertex -9.929447639179832 -4.272593389687455 40.00000000000001
    vertex -7.999999999999999 -5.071796769724493 40.00000000000001
  endloop
endfacet
facet normal -9.058364759598165e-17 5.665399106329555e-17 1.0
  outer loop
    vertex -3.0 0.0 40.00000000000001
    vertex -7.999999999999999 -5.071796769724493 40.00000000000001
    vertex -6.34314575050762 -6.34314575050762 40.00000000000001
  endloop
endfacet
facet normal -9.058364759598165e-17 5.665399106329555e-17 1.0
  outer loop
    vertex -3.0 0.0 40.00000000000001
    vertex -6.34314575050762 -6.34314575050762 40.00000000000001
    vertex -5.071796769724493 -8.000000000000002 40.00000000000001
  endloop
endfacet
facet normal -9.058364759598165e-17 5.665399106329555e-17 1.0
  outer loop
    vertex -3.0 0.0 40.00000000000001
    vertex -5.071796769724493 -8.000000000000002 40.00000000000001
    vertex -4.272593389687455 -9.929447639179836 40.00000000000001
  endloop
endfacet
facet normal -9.058364759598165e-17 5.665399106329555e-17 1.0
  outer loop
    vertex -3.0 0.0 40.00000000000001
    vertex -4.272593389687455 -9.929447639179836 40.00000000000001
    vertex -4.000000000000001 -12.0 40.00000000000001
  endloop
endfacet
facet normal 0.0 0.0 -1.0
  outer loop
    vertex -17.0 0.0 0.0
    vertex -20.0 -7.999999999999998 0.0
    vertex -20.0 -3.0 0.0
  endloop
endfacet
facet normal 0.0 0.0 -1.0
  outer loop
    vertex -20.0 -7.999999999999998 0.0
    vertex -17.0 0.0 0.0
    vertex -18.928203230275507 -7.999999999999998 0.0
  endloop
endfacet
facet normal 0.0 0.0 -1.0
  outer loop
    vertex -18.928203230275507 -7.999999999999998 0.0
    vertex -17.0 0.0 0.0
    vertex -17.65685424949238 -6.34314575050762 0.0
  endloop
endfacet
facet normal 0.0 0.0 -1.0
  outer loop
    vertex -17.65685424949238 -6.34314575050762 0.0
    vertex -17.0 0.0 0.0
    vertex -15.999999999999996 -5.07179676972449 0.0
  endloop
endfacet
facet normal 0.0 0.0 -1.0
  outer loop
    vertex -15.999999999999996 -5.07179676972449 0.0
    vertex -17.0 0.0 0.0
    vertex -14.070552360820166 -4.272593389687455 0.0
  endloop
endfacet
facet normal 0.0 0.0 -1.0
  outer loop
    vertex -14.070552360820166 -4.272593389687455 0.0
    vertex -17.0 0.0 0.0
    vertex -3.0 0.0 0.0
  endloop
endfacet
facet normal 0.0 0.0 -1.0
  outer loop
    vertex -14.070552360820166 -4.272593389687455 0.0
    vertex -3.0 0.0 0.0
    vertex -12.0 -4.000000000000001 0.0
  endloop
endfacet
facet normal 0.0 0.0 -1.0
  outer loop
    vertex -12.0 -4.000000000000001 0.0
    vertex -3.0 0.0 0.0
    vertex -9.929447639179832 -4.272593389687455 0.0
  endloop
endfacet
facet normal 0.0 0.0 -1.0
  outer loop
    vertex -9.929447639179832 -4.272593389687455 0.0
    vertex -3.0 0.0 0.0
    vertex -7.999999999999999 -5.071796769724493 0.0
  endloop
endfacet
facet normal 0.0 0.0 -1.0
  outer loop
    vertex -7.999999999999999 -5.071796769724493 0.0
    vertex -3.0 0.0 0.0
    vertex -6.34314575050762 -6.34314575050762 0.0
  endloop
endfacet
facet normal 0.0 0.0 -1.0
  outer loop
    vertex -6.34314575050762 -6.34314575050762 0.0
    vertex -3.0 0.0 0.0
    vertex -5.071796769724493 -8.000000000000002 0.0
  endloop
endfacet
facet normal 0.0 0.0 -1.0
  outer loop
    vertex -5.071796769724493 -8.000000000000002 0.0
    vertex -3.0 0.0 0.0
    vertex -4.272593389687455 -9.929447639179836 0.0
  endloop
endfacet
facet normal 0.0 0.0 -1.0
  outer loop
    vertex -4.272593389687455 -9.929447639179836 0.0
    vertex -3.0 0.0 0.0
    vertex -4.000000000000001 -12.0 0.0
  endloop
endfacet
facet normal 0.0 0.0 -1.0
  outer loop
    vertex -5.071796769724496 -16.0 0.0
    vertex -6.343145750507623 -20.0 0.0
    vertex -6.343145750507623 -17.65685424949238 0.0
  endloop
endfacet
facet normal 0.0 0.0 -1.0
  outer loop
    vertex -6.343145750507623 -20.0 0.0
    vertex -5.071796769724496 -16.0 0.0
    vertex -3.0 -20.0 0.0
  endloop
endfacet
facet normal 0.0 0.0 -1.0
  outer loop
    vertex -3.0 -20.0 0.0
    vertex -5.071796769724496 -16.0 0.0
    vertex -4.272593389687458 -14.070552360820171 0.0
  endloop
endfacet
facet normal 0.0 0.0 -1.0
  outer loop
    vertex -3.0 -20.0 0.0
    vertex -4.272593389687458 -14.070552360820171 0.0
    vertex -4.000000000000001 -12.0 0.0
  endloop
endfacet
facet normal 0.0 0.0 -1.0
  outer loop
    vertex -3.0 -20.0 0.0
    vertex -4.000000000000001 -12.0 0.0
    vertex -3.0 0.0 0.0
  endloop
endfacet
facet normal 0.0 0.0 -1.0
  outer loop
    vertex -3.0 -20.0 0.0
    vertex -3.0 0.0 0.0
    vertex 0.0 -3.0 0.0
  endloop
endfacet
facet normal 0.0 0.0 -1.0
  outer loop
    vertex -3.0 -20.0 0.0
    vertex 0.0 -3.0 0.0
    vertex 0.0 -17.0 0.0
  endloop
endfacet
facet normal 0.7056213321813352 -0.7085885616758784 -0.000886472079619443
  outer loop
    vertex 0.025126000000000735 -17.0 10.0
    vertex -3.0 -20.0 0.0
    vertex 0.0 -17.0 0.0
  endloop
endfacet
facet normal 0.7056213321813352 -0.7085885616758784 -0.000886472079619443
  outer loop
    vertex -3.0 -20.0 0.0
    vertex 0.025126000000000735 -17.0 10.0
    vertex -3.0 -20.0 10.0
  endloop
endfacet
facet normal 0.7071067811865476 -0.7071067811865475 -2.3741269936978698e-17
  outer loop
    vertex -7.049916206369744e-16 -17.0 30.000000000000007
    vertex -3.0 -20.0 40.00000000000001
    vertex -3.0 -20.0 30.000000000000014
  endloop
endfacet
facet normal 0.7071067811865476 -0.7071067811865475 -2.3741269936978698e-17
  outer loop
    vertex -3.0 -20.0 40.00000000000001
    vertex -7.049916206369744e-16 -17.0 30.000000000000007
    vertex 0.0 -17.0 40.00000000000001
  endloop
endfacet
facet normal 0.5773502691896267 -0.5773502691896253 0.5773502691896253
  outer loop
    vertex -7.049916206369744e-16 -17.0 30.000000000000007
    vertex -3.0 -20.0 30.000000000000014
    vertex -7.049916206369744e-16 -20.0 27.000000000000007
  endloop
endfacet
facet normal 0.0 -1.0 0.0
  outer loop
    vertex 10.0 -20.0 27.000000000000007
    vertex 0.025126000000000735 -20.0 12.999999999999998
    vertex 10.0 -20.0 12.999999999999998
  endloop
endfacet
facet normal 0.0 -1.0 0.0
  outer loop
    vertex -3.0 -20.0 10.0
    vertex -6.343145750507623 -20.0 0.0
    vertex -3.0 -20.0 0.0
  endloop
endfacet
facet normal 0.0 -1.0 0.0
  outer loop
    vertex -6.343145750507623 -20.0 0.0
    vertex -3.0 -20.0 10.0
    vertex -6.343145750507623 -20.0 40.00000000000001
  endloop
endfacet
facet normal 0.0 -1.0 0.0
  outer loop
    vertex -6.343145750507623 -20.0 40.00000000000001
    vertex -3.0 -20.0 10.0
    vertex 0.025126000000000735 -20.0 12.999999999999998
  endloop
endfacet
facet normal 0.0 -1.0 0.0
  outer loop
    vertex -6.343145750507623 -20.0 40.00000000000001
    vertex 0.025126000000000735 -20.0 12.999999999999998
    vertex -3.0 -20.0 30.000000000000014
  endloop
endfacet
facet normal 0.0 -1.0 0.0
  outer loop
    vertex -3.0 -20.0 30.000000000000014
    vertex 0.025126000000000735 -20.0 12.999999999999998
    vertex -7.049916206369744e-16 -20.0 27.000000000000007
  endloop
endfacet
facet normal 0.0 -1.0 0.0
  outer loop
    vertex -7.049916206369744e-16 -20.0 27.000000000000007
    vertex 0.025126000000000735 -20.0 12.999999999999998
    vertex 10.0 -20.0 27.000000000000007
  endloop
endfacet
facet normal 0.0 -1.0 0.0
  outer loop
    vertex -6.343145750507623 -20.0 40.00000000000001
    vertex -3.0 -20.0 30.000000000000014
    vertex -3.0 -20.0 40.00000000000001
  endloop
endfacet
facet normal 0.5741400761805999 -0.5789486906986381 -0.5789486906986385
  outer loop
    vertex 0.025126000000000735 -20.0 12.999999999999998
    vertex -3.0 -20.0 10.0
    vertex 0.025126000000000735 -17.0 10.0
  endloop
endfacet
endsolid втулка-Ultimaker
